<?xml version="1.0" encoding="UTF-8" standalone="no"?>
<!DOCTYPE svg PUBLIC "-//W3C//DTD SVG 1.1//EN"
 "http://www.w3.org/Graphics/SVG/1.1/DTD/svg11.dtd">
<!-- Generated by graphviz version 2.43.0 (0)
 -->
<!-- Title: voice_flow Pages: 1 -->
<svg width="744pt" height="929pt"
 viewBox="0.00 0.00 744.00 929.00" xmlns="http://www.w3.org/2000/svg" xmlns:xlink="http://www.w3.org/1999/xlink">
<g id="graph0" class="graph" transform="scale(1 1) rotate(0) translate(36 893)">
<title>voice_flow</title>
<polygon fill="#0d0d0d" stroke="transparent" points="-36,36 -36,-893 708,-893 708,36 -36,36"/>
<g id="clust1" class="cluster">
<title>cluster_hotkey</title>
<path fill="#030d03" stroke="#39ff14" stroke-width="2.5" d="M20,-93C20,-93 497,-93 497,-93 503,-93 509,-99 509,-105 509,-105 509,-391 509,-391 509,-397 503,-403 497,-403 497,-403 20,-403 20,-403 14,-403 8,-397 8,-391 8,-391 8,-105 8,-105 8,-99 14,-93 20,-93"/>
<text text-anchor="middle" x="258.5" y="-389.4" font-family="Monospace" font-size="12.00" fill="#39ff14"> &#160;/usr/local/bin/voice&#45;hotkey &#160;</text>
</g>
<g id="clust2" class="cluster">
<title>cluster_voice</title>
<path fill="#0d0300" stroke="#ff8c00" stroke-width="2.5" d="M259,-439C259,-439 514,-439 514,-439 520,-439 526,-445 526,-451 526,-451 526,-837 526,-837 526,-843 520,-849 514,-849 514,-849 259,-849 259,-849 253,-849 247,-843 247,-837 247,-837 247,-451 247,-451 247,-445 253,-439 259,-439"/>
<text text-anchor="middle" x="386.5" y="-835.4" font-family="Monospace" font-size="12.00" fill="#ff8c00"> &#160;voice&#45;input &#45;&#45;mode print (Rust) &#160;</text>
</g>
<!-- KEY -->
<g id="node1" class="node">
<title>KEY</title>
<path fill="#1a0033" stroke="#bc13fe" stroke-width="2.5" d="M180,-608C180,-608 70,-608 70,-608 64,-608 58,-602 58,-596 58,-596 58,-570 58,-570 58,-564 64,-558 70,-558 70,-558 180,-558 180,-558 186,-558 192,-564 192,-570 192,-570 192,-596 192,-596 192,-602 186,-608 180,-608"/>
<text text-anchor="middle" x="125" y="-586.6" font-family="Monospace" font-size="13.00" fill="#ffffff">⌨ &#160;Ctrl+Alt+V</text>
<text text-anchor="middle" x="125" y="-572.6" font-family="Monospace" font-size="13.00" fill="#ffffff">keypress</text>
</g>
<!-- XBIND -->
<g id="node2" class="node">
<title>XBIND</title>
<path fill="#001933" stroke="#0ff0fc" stroke-width="2.5" d="M180,-497C180,-497 70,-497 70,-497 64,-497 58,-491 58,-485 58,-485 58,-459 58,-459 58,-453 64,-447 70,-447 70,-447 180,-447 180,-447 186,-447 192,-453 192,-459 192,-459 192,-485 192,-485 192,-491 186,-497 180,-497"/>
<text text-anchor="middle" x="125" y="-475.6" font-family="Monospace" font-size="13.00" fill="#ffffff">xbindkeys</text>
<text text-anchor="middle" x="125" y="-461.6" font-family="Monospace" font-size="13.00" fill="#ffffff">hotkey daemon</text>
</g>
<!-- KEY&#45;&gt;XBIND -->
<g id="edge1" class="edge">
<title>KEY&#45;&gt;XBIND</title>
<path fill="none" stroke="#bc13fe" stroke-width="2" d="M125,-557.81C125,-542.99 125,-523.79 125,-507.41"/>
<polygon fill="#bc13fe" stroke="#bc13fe" stroke-width="2" points="128.5,-507.12 125,-497.12 121.5,-507.12 128.5,-507.12"/>
</g>
<!-- FOCUS -->
<g id="node3" class="node">
<title>FOCUS</title>
<path fill="#071207" stroke="#39ff14" stroke-width="2.5" d="M221.5,-374C221.5,-374 28.5,-374 28.5,-374 22.5,-374 16.5,-368 16.5,-362 16.5,-362 16.5,-336 16.5,-336 16.5,-330 22.5,-324 28.5,-324 28.5,-324 221.5,-324 221.5,-324 227.5,-324 233.5,-330 233.5,-336 233.5,-336 233.5,-362 233.5,-362 233.5,-368 227.5,-374 221.5,-374"/>
<text text-anchor="middle" x="125" y="-352.6" font-family="Monospace" font-size="13.00" fill="#ffffff">xdotool getactivewindow</text>
<text text-anchor="middle" x="125" y="-338.6" font-family="Monospace" font-size="13.00" fill="#ffffff">→ save FOCUSED window ID</text>
</g>
<!-- XBIND&#45;&gt;FOCUS -->
<g id="edge2" class="edge">
<title>XBIND&#45;&gt;FOCUS</title>
<path fill="none" stroke="#0ff0fc" stroke-width="2" d="M125,-446.8C125,-428.92 125,-404.31 125,-384.38"/>
<polygon fill="#0ff0fc" stroke="#0ff0fc" stroke-width="2" points="128.5,-384.15 125,-374.15 121.5,-384.15 128.5,-384.15"/>
</g>
<!-- MKTEMP -->
<g id="node4" class="node">
<title>MKTEMP</title>
<path fill="#071207" stroke="#39ff14" stroke-width="2.5" d="M217.5,-252C217.5,-252 32.5,-252 32.5,-252 26.5,-252 20.5,-246 20.5,-240 20.5,-240 20.5,-214 20.5,-214 20.5,-208 26.5,-202 32.5,-202 32.5,-202 217.5,-202 217.5,-202 223.5,-202 229.5,-208 229.5,-214 229.5,-214 229.5,-240 229.5,-240 229.5,-246 223.5,-252 217.5,-252"/>
<text text-anchor="middle" x="125" y="-230.6" font-family="Monospace" font-size="13.00" fill="#ffffff">mktemp /tmp/voice&#45;*.txt</text>
<text text-anchor="middle" x="125" y="-216.6" font-family="Monospace" font-size="13.00" fill="#ffffff">→ TMPFILE</text>
</g>
<!-- FOCUS&#45;&gt;MKTEMP -->
<g id="edge3" class="edge">
<title>FOCUS&#45;&gt;MKTEMP</title>
<path fill="none" stroke="#39ff14" stroke-width="2" d="M125,-323.72C125,-306.07 125,-281.94 125,-262.32"/>
<polygon fill="#39ff14" stroke="#39ff14" stroke-width="2" points="128.5,-262.25 125,-252.25 121.5,-262.25 128.5,-262.25"/>
</g>
<!-- REFOCUS -->
<g id="node7" class="node">
<title>REFOCUS</title>
<path fill="#071207" stroke="#39ff14" stroke-width="2.5" d="M440.5,-252C440.5,-252 285.5,-252 285.5,-252 279.5,-252 273.5,-246 273.5,-240 273.5,-240 273.5,-214 273.5,-214 273.5,-208 279.5,-202 285.5,-202 285.5,-202 440.5,-202 440.5,-202 446.5,-202 452.5,-208 452.5,-214 452.5,-214 452.5,-240 452.5,-240 452.5,-246 446.5,-252 440.5,-252"/>
<text text-anchor="middle" x="363" y="-230.6" font-family="Monospace" font-size="13.00" fill="#ffffff">xdotool windowfocus</text>
<text text-anchor="middle" x="363" y="-216.6" font-family="Monospace" font-size="13.00" fill="#ffffff">→ restore FOCUSED</text>
</g>
<!-- FOCUS&#45;&gt;REFOCUS -->
<g id="edge11" class="edge">
<title>FOCUS&#45;&gt;REFOCUS</title>
<path fill="none" stroke="#39ff14" stroke-width="2" stroke-dasharray="5,2" d="M172.88,-323.86C211.37,-304.45 265.54,-277.14 306.21,-256.63"/>
<polygon fill="#39ff14" stroke="#39ff14" stroke-width="2" points="307.85,-259.73 315.2,-252.1 304.69,-253.48 307.85,-259.73"/>
<text text-anchor="middle" x="313.5" y="-291" font-family="Monospace" font-size="10.00" fill="#aaaaaa">window ID</text>
<text text-anchor="middle" x="313.5" y="-280" font-family="Monospace" font-size="10.00" fill="#aaaaaa">(passed through)</text>
</g>
<!-- XTERM -->
<g id="node5" class="node">
<title>XTERM</title>
<path fill="#071207" stroke="#39ff14" stroke-width="2.5" d="M206.5,-151C206.5,-151 43.5,-151 43.5,-151 37.5,-151 31.5,-145 31.5,-139 31.5,-139 31.5,-113 31.5,-113 31.5,-107 37.5,-101 43.5,-101 43.5,-101 206.5,-101 206.5,-101 212.5,-101 218.5,-107 218.5,-113 218.5,-113 218.5,-139 218.5,-139 218.5,-145 212.5,-151 206.5,-151"/>
<text text-anchor="middle" x="125" y="-129.6" font-family="Monospace" font-size="13.00" fill="#ffffff">xterm &#45;geometry 64x8</text>
<text text-anchor="middle" x="125" y="-115.6" font-family="Monospace" font-size="13.00" fill="#ffffff">Push&#45;to&#45;Talk UI</text>
</g>
<!-- MKTEMP&#45;&gt;XTERM -->
<g id="edge4" class="edge">
<title>MKTEMP&#45;&gt;XTERM</title>
<path fill="none" stroke="#39ff14" stroke-width="2" d="M125,-201.78C125,-189.68 125,-174.81 125,-161.54"/>
<polygon fill="#39ff14" stroke="#39ff14" stroke-width="2" points="128.5,-161.31 125,-151.31 121.5,-161.31 128.5,-161.31"/>
</g>
<!-- MIC -->
<g id="node9" class="node">
<title>MIC</title>
<path fill="#110500" stroke="#ff8c00" stroke-width="2.5" d="M489.5,-820C489.5,-820 304.5,-820 304.5,-820 298.5,-820 292.5,-814 292.5,-808 292.5,-808 292.5,-782 292.5,-782 292.5,-776 298.5,-770 304.5,-770 304.5,-770 489.5,-770 489.5,-770 495.5,-770 501.5,-776 501.5,-782 501.5,-782 501.5,-808 501.5,-808 501.5,-814 495.5,-820 489.5,-820"/>
<text text-anchor="middle" x="397" y="-798.6" font-family="Monospace" font-size="13.00" fill="#ffffff">PipeWire capture</text>
<text text-anchor="middle" x="397" y="-784.6" font-family="Monospace" font-size="13.00" fill="#ffffff">alsa_input UC03 @ 32kHz</text>
</g>
<!-- XTERM&#45;&gt;MIC -->
<g id="edge5" class="edge">
<title>XTERM&#45;&gt;MIC</title>
<path fill="none" stroke="#ff8c00" stroke-width="2" d="M218.81,-146.59C289.14,-161.41 387.71,-182.48 474,-202 519,-212.18 575,-179.86 575,-226 575,-695 575,-695 575,-695 575,-731.68 545.78,-754.89 511.01,-769.52"/>
<polygon fill="#ff8c00" stroke="#ff8c00" stroke-width="2" points="509.59,-766.32 501.57,-773.24 512.16,-772.83 509.59,-766.32"/>
<text text-anchor="middle" x="623.5" y="-469.5" font-family="Monospace" font-size="10.00" fill="#aaaaaa">spawn subprocess</text>
</g>
<!-- READTMP -->
<g id="node6" class="node">
<title>READTMP</title>
<path fill="#071207" stroke="#39ff14" stroke-width="2.5" d="M489,-374C489,-374 289,-374 289,-374 283,-374 277,-368 277,-362 277,-362 277,-336 277,-336 277,-330 283,-324 289,-324 289,-324 489,-324 489,-324 495,-324 501,-330 501,-336 501,-336 501,-362 501,-362 501,-368 495,-374 489,-374"/>
<text text-anchor="middle" x="389" y="-352.6" font-family="Monospace" font-size="13.00" fill="#ffffff">TRANSCRIPT=$(cat TMPFILE)</text>
<text text-anchor="middle" x="389" y="-338.6" font-family="Monospace" font-size="13.00" fill="#ffffff">rm &#45;f TMPFILE</text>
</g>
<!-- READTMP&#45;&gt;REFOCUS -->
<g id="edge10" class="edge">
<title>READTMP&#45;&gt;REFOCUS</title>
<path fill="none" stroke="#39ff14" stroke-width="2" d="M371.35,-323.99C366.73,-316.38 362.38,-307.68 360,-299 356.78,-287.22 356.49,-273.93 357.36,-262.07"/>
<polygon fill="#39ff14" stroke="#39ff14" stroke-width="2" points="360.85,-262.38 358.37,-252.08 353.88,-261.67 360.85,-262.38"/>
</g>
<!-- TYPE -->
<g id="node8" class="node">
<title>TYPE</title>
<path fill="#071207" stroke="#39ff14" stroke-width="2.5" d="M458.5,-151C458.5,-151 273.5,-151 273.5,-151 267.5,-151 261.5,-145 261.5,-139 261.5,-139 261.5,-113 261.5,-113 261.5,-107 267.5,-101 273.5,-101 273.5,-101 458.5,-101 458.5,-101 464.5,-101 470.5,-107 470.5,-113 470.5,-113 470.5,-139 470.5,-139 470.5,-145 464.5,-151 458.5,-151"/>
<text text-anchor="middle" x="366" y="-129.6" font-family="Monospace" font-size="13.00" fill="#ffffff">xdotool type TRANSCRIPT</text>
<text text-anchor="middle" x="366" y="-115.6" font-family="Monospace" font-size="13.00" fill="#ffffff">xdotool key Return</text>
</g>
<!-- REFOCUS&#45;&gt;TYPE -->
<g id="edge12" class="edge">
<title>REFOCUS&#45;&gt;TYPE</title>
<path fill="none" stroke="#39ff14" stroke-width="2" d="M363.73,-201.78C364.1,-189.68 364.55,-174.81 364.95,-161.54"/>
<polygon fill="#39ff14" stroke="#39ff14" stroke-width="2" points="368.46,-161.41 365.26,-151.31 361.46,-161.2 368.46,-161.41"/>
</g>
<!-- CLAUDE -->
<g id="node13" class="node">
<title>CLAUDE</title>
<path fill="#0d0d1a" stroke="#bc13fe" stroke-width="3" d="M470,-50C470,-50 262,-50 262,-50 256,-50 250,-44 250,-38 250,-38 250,-12 250,-12 250,-6 256,0 262,0 262,0 470,0 470,0 476,0 482,-6 482,-12 482,-12 482,-38 482,-38 482,-44 476,-50 470,-50"/>
<text text-anchor="middle" x="366" y="-28.6" font-family="Monospace" font-size="13.00" fill="#ffffff">Claude Code CLI</text>
<text text-anchor="middle" x="366" y="-14.6" font-family="Monospace" font-size="13.00" fill="#ffffff">receives &amp; executes prompt</text>
</g>
<!-- TYPE&#45;&gt;CLAUDE -->
<g id="edge13" class="edge">
<title>TYPE&#45;&gt;CLAUDE</title>
<path fill="none" stroke="#bc13fe" stroke-width="3" d="M366,-100.78C366,-88.68 366,-73.81 366,-60.54"/>
<polygon fill="#bc13fe" stroke="#bc13fe" stroke-width="3" points="369.5,-60.31 366,-50.31 362.5,-60.31 369.5,-60.31"/>
</g>
<!-- HOLD -->
<g id="node10" class="node">
<title>HOLD</title>
<polygon fill="#110500" stroke="#ffff00" stroke-width="2.5" stroke-dasharray="5,2" points="492,-719 298,-719 298,-669 492,-669 492,-719"/>
<text text-anchor="middle" x="395" y="-697.6" font-family="Monospace" font-size="13.00" fill="#ffffff">[ speak your prompt ]</text>
<text text-anchor="middle" x="395" y="-683.6" font-family="Monospace" font-size="13.00" fill="#ffffff">press Enter to stop</text>
</g>
<!-- MIC&#45;&gt;HOLD -->
<g id="edge6" class="edge">
<title>MIC&#45;&gt;HOLD</title>
<path fill="none" stroke="#ff8c00" stroke-width="2" d="M396.51,-769.78C396.27,-757.68 395.97,-742.81 395.7,-729.54"/>
<polygon fill="#ff8c00" stroke="#ff8c00" stroke-width="2" points="399.19,-729.24 395.49,-719.31 392.19,-729.38 399.19,-729.24"/>
</g>
<!-- WHISPER -->
<g id="node11" class="node">
<title>WHISPER</title>
<path fill="#110500" stroke="#ff073a" stroke-width="2.5" d="M467.5,-608C467.5,-608 304.5,-608 304.5,-608 298.5,-608 292.5,-602 292.5,-596 292.5,-596 292.5,-570 292.5,-570 292.5,-564 298.5,-558 304.5,-558 304.5,-558 467.5,-558 467.5,-558 473.5,-558 479.5,-564 479.5,-570 479.5,-570 479.5,-596 479.5,-596 479.5,-602 473.5,-608 467.5,-608"/>
<text text-anchor="middle" x="386" y="-586.6" font-family="Monospace" font-size="13.00" fill="#ffffff">whisper.cpp large&#45;v3</text>
<text text-anchor="middle" x="386" y="-572.6" font-family="Monospace" font-size="13.00" fill="#ffffff">GPU inference (CUDA)</text>
</g>
<!-- HOLD&#45;&gt;WHISPER -->
<g id="edge7" class="edge">
<title>HOLD&#45;&gt;WHISPER</title>
<path fill="none" stroke="#ff073a" stroke-width="2" d="M393,-668.81C391.78,-653.99 390.19,-634.79 388.84,-618.41"/>
<polygon fill="#ff073a" stroke="#ff073a" stroke-width="2" points="392.3,-617.8 387.99,-608.12 385.33,-618.38 392.3,-617.8"/>
<text text-anchor="middle" x="423.5" y="-636" font-family="Monospace" font-size="10.00" fill="#aaaaaa">PCM samples</text>
</g>
<!-- STDOUT -->
<g id="node12" class="node">
<title>STDOUT</title>
<path fill="#110500" stroke="#ffff00" stroke-width="2.5" d="M476.5,-497C476.5,-497 283.5,-497 283.5,-497 277.5,-497 271.5,-491 271.5,-485 271.5,-485 271.5,-459 271.5,-459 271.5,-453 277.5,-447 283.5,-447 283.5,-447 476.5,-447 476.5,-447 482.5,-447 488.5,-453 488.5,-459 488.5,-459 488.5,-485 488.5,-485 488.5,-491 482.5,-497 476.5,-497"/>
<text text-anchor="middle" x="380" y="-475.6" font-family="Monospace" font-size="13.00" fill="#ffffff">stdout → TMPFILE</text>
<text text-anchor="middle" x="380" y="-461.6" font-family="Monospace" font-size="13.00" fill="#ffffff">(stderr → xterm display)</text>
</g>
<!-- WHISPER&#45;&gt;STDOUT -->
<g id="edge8" class="edge">
<title>WHISPER&#45;&gt;STDOUT</title>
<path fill="none" stroke="#ffff00" stroke-width="2" d="M384.67,-557.81C383.85,-542.99 382.8,-523.79 381.89,-507.41"/>
<polygon fill="#ffff00" stroke="#ffff00" stroke-width="2" points="385.37,-506.92 381.33,-497.12 378.38,-507.3 385.37,-506.92"/>
<text text-anchor="middle" x="428.5" y="-525" font-family="Monospace" font-size="10.00" fill="#aaaaaa">transcript text</text>
</g>
<!-- STDOUT&#45;&gt;READTMP -->
<g id="edge9" class="edge">
<title>STDOUT&#45;&gt;READTMP</title>
<path fill="none" stroke="#39ff14" stroke-width="2" d="M381.8,-446.8C383.13,-428.92 384.96,-404.31 386.44,-384.38"/>
<polygon fill="#39ff14" stroke="#39ff14" stroke-width="2" points="389.95,-384.39 387.2,-374.15 382.97,-383.87 389.95,-384.39"/>
<text text-anchor="middle" x="438.5" y="-414" font-family="Monospace" font-size="10.00" fill="#aaaaaa">written to TMPFILE</text>
</g>
</g>
</svg>
